<?xml version="1.0" encoding="utf-8"?>
<!-- Generator: Adobe Illustrator 16.0.4, SVG Export Plug-In . SVG Version: 6.00 Build 0)  -->
<!DOCTYPE svg PUBLIC "-//W3C//DTD SVG 1.1//EN" "http://www.w3.org/Graphics/SVG/1.1/DTD/svg11.dtd">
<svg version="1.1" id="svg2" xmlns:svg="http://www.w3.org/2000/svg"
	 xmlns="http://www.w3.org/2000/svg" xmlns:xlink="http://www.w3.org/1999/xlink" x="0px" y="0px" width="185px"
	 height="185.139px" viewBox="0 0 176.527 185.139" enable-background="new 0 0 176.527 185.139" xml:space="preserve">
<path id="path2255" fill="#6666CC" d="M47.243,12.929v25.908h21.336l8.763,27.051l-65.15,100.963h32.003l46.481-68.578
	l30.479,76.961l48.005-15.24l-7.62-23.621l-22.098,6.857l-51.815-130.3H47.243z"/>
<path fill="#6666CC" d="M127.077,51.256V22.698c0-3.13,2.098-5.542,6.294-7.233c4.195-1.69,9.112-2.536,14.747-2.536
	c5.637,0,10.553,0.846,14.749,2.536c4.196,1.691,6.294,4.103,6.294,7.233v28.558c0,3.131-2.098,5.542-6.294,7.233
	s-9.112,2.537-14.749,2.537c-5.635,0-10.552-0.846-14.747-2.537C129.175,56.798,127.077,54.387,127.077,51.256L127.077,51.256z
	 M130.084,51.256c0,1.878,1.752,3.476,5.26,4.791c3.508,1.315,7.765,1.973,12.774,1.973s9.27-0.658,12.776-1.973
	c3.506-1.315,5.261-2.913,5.261-4.791V45.62c-1.503,1.565-3.915,2.773-7.233,3.616c-3.318,0.846-6.92,1.269-10.804,1.269
	c-3.882,0-7.484-0.423-10.802-1.269c-3.319-0.843-5.73-2.051-7.232-3.616V51.256L130.084,51.256z M130.084,42.239
	c0,1.879,1.752,3.475,5.26,4.79c3.508,1.317,7.765,1.974,12.774,1.974s9.27-0.657,12.776-1.974c3.506-1.315,5.261-2.911,5.261-4.79
	v-5.637c-1.503,1.565-3.915,2.772-7.233,3.615c-3.318,0.846-6.92,1.27-10.804,1.27c-3.882,0-7.484-0.424-10.802-1.27
	c-3.319-0.843-5.73-2.05-7.232-3.615V42.239L130.084,42.239z M130.084,33.22c0,1.878,1.752,3.476,5.26,4.79
	c3.508,1.315,7.765,1.974,12.774,1.974s9.27-0.659,12.776-1.974c3.506-1.314,5.261-2.912,5.261-4.79v-5.167
	c-1.879,1.44-4.446,2.536-7.704,3.288c-3.256,0.751-6.7,1.126-10.333,1.126c-3.63,0-7.076-0.375-10.332-1.126
	c-3.256-0.752-5.824-1.848-7.702-3.288V33.22L130.084,33.22z M130.084,22.698c0,1.88,1.752,3.476,5.26,4.792
	c3.508,1.315,7.765,1.973,12.774,1.973s9.27-0.657,12.776-1.973c3.506-1.316,5.261-2.912,5.261-4.792
	c0-1.878-1.755-3.475-5.261-4.791c-3.507-1.314-7.767-1.972-12.776-1.972s-9.267,0.658-12.774,1.972
	C131.836,19.224,130.084,20.82,130.084,22.698L130.084,22.698z M160.143,52.008c0-0.439,0.142-0.798,0.424-1.081
	c0.281-0.281,0.642-0.423,1.079-0.423c0.439,0,0.8,0.142,1.082,0.423c0.28,0.282,0.422,0.642,0.422,1.081
	c0,0.438-0.142,0.798-0.422,1.081c-0.282,0.281-0.643,0.423-1.082,0.423c-0.438,0-0.798-0.142-1.079-0.423
	C160.284,52.806,160.143,52.445,160.143,52.008z M160.143,42.99c0-0.438,0.142-0.799,0.424-1.08
	c0.281-0.284,0.642-0.423,1.079-0.423c0.439,0,0.8,0.139,1.082,0.423c0.28,0.281,0.422,0.643,0.422,1.08
	c0,0.439-0.142,0.798-0.422,1.08c-0.282,0.282-0.643,0.423-1.082,0.423c-0.438,0-0.798-0.141-1.079-0.423
	C160.284,43.789,160.143,43.429,160.143,42.99z M160.143,33.972c0-0.438,0.142-0.799,0.424-1.08
	c0.281-0.283,0.642-0.423,1.079-0.423c0.439,0,0.8,0.141,1.082,0.423c0.28,0.281,0.422,0.643,0.422,1.08
	c0,0.439-0.142,0.798-0.422,1.08c-0.282,0.282-0.643,0.424-1.082,0.424c-0.438,0-0.798-0.142-1.079-0.424
	C160.284,34.77,160.143,34.411,160.143,33.972z"/>
</svg>
